<svg width="32" height="32" viewBox="0 0 32 32" fill="none" xmlns="http://www.w3.org/2000/svg">
<path d="M8.22222 5C7.54829 5 7 5.57677 7 6.28571V25.7143C7 26.4232 7.54829 27 8.22222 27H23.7778C24.4517 27 25 26.4232 25 25.7143V10.1223L19.9845 5H8.22222ZM8.22222 4H20.4049L26 9.71429V25.7143C26 26.9767 25.0051 28 23.7778 28H8.22222C6.99492 28 6 26.9767 6 25.7143V6.28571C6 5.02335 6.99492 4 8.22222 4Z" fill="#F0F0F0"/>
<path d="M20 4.5C20 4.22386 19.7761 4 19.5 4C19.2239 4 19 4.22386 19 4.5V10.5C19 10.7761 19.2239 11 19.5 11C19.7761 11 20 10.7761 20 10.5V4.5Z" fill="#F0F0F0"/>
<path d="M19.41 10H25.146C25.2661 10.0131 25.3764 10.0728 25.453 10.1663C25.5297 10.2598 25.5666 10.3796 25.556 10.5C25.5666 10.6204 25.5297 10.7402 25.453 10.8337C25.3764 10.9272 25.2661 10.9869 25.146 11H19.41C19.2898 10.9869 19.1796 10.9272 19.1029 10.8337C19.0263 10.7402 18.9893 10.6204 19 10.5C18.9893 10.3796 19.0263 10.2598 19.1029 10.1663C19.1796 10.0728 19.2898 10.0131 19.41 10V10Z" fill="#F0F0F0"/>
<path d="M20.5 23C20.7761 23 21 22.7761 21 22.5C21 22.2239 20.7761 22 20.5 22H11.5C11.2239 22 11 22.2239 11 22.5C11 22.7761 11.2239 23 11.5 23H20.5Z" fill="#F0F0F0"/>
<path d="M20.5 19C20.7761 19 21 18.7761 21 18.5C21 18.2239 20.7761 18 20.5 18H11.5C11.2239 18 11 18.2239 11 18.5C11 18.7761 11.2239 19 11.5 19H20.5Z" fill="#F0F0F0"/>
<path d="M20.5 15C20.7761 15 21 14.7761 21 14.5C21 14.2239 20.7761 14 20.5 14H11.5C11.2239 14 11 14.2239 11 14.5C11 14.7761 11.2239 15 11.5 15H20.5Z" fill="#F0F0F0"/>
</svg>
