<svg width="204" height="150" viewBox="0 0 204 150" fill="none" xmlns="http://www.w3.org/2000/svg">
<g clip-path="url(#clip0_1160_43918)">
<path d="M93 150C131.108 150 162 119.108 162 81C162 42.8924 131.108 12 93 12C54.8924 12 24 42.8924 24 81C24 119.108 54.8924 150 93 150Z" fill="#F7F7F7"/>
<path d="M126.666 116.084V116.101L126.666 116.118C126.699 117.055 126.358 117.967 125.719 118.653C125.084 119.335 124.206 119.738 123.275 119.777H64.8472C63.9168 119.738 63.0387 119.335 62.4037 118.653C61.7647 117.967 61.424 117.055 61.4562 116.118L61.4568 116.101V116.084V45.693V45.6759L61.4562 45.6588C61.4242 44.7219 61.765 43.8105 62.404 43.1245C63.039 42.4427 63.9169 42.0389 64.8474 42H108.659L126.666 60.9178V116.084Z" fill="#FBFBFB" stroke="#E2E2E2" stroke-width="2"/>
<path d="M127.666 61.0418H109.109V41.0288L127.666 60.5798V61.0408V61.0418Z" fill="#D0D0D0"/>
<path d="M30.5 12C32.433 12 34 10.433 34 8.5C34 6.567 32.433 5 30.5 5C28.567 5 27 6.567 27 8.5C27 10.433 28.567 12 30.5 12Z" fill="#EFEFEF"/>
<path d="M5 56L5.925 60.075L10 61L5.925 61.925L5 66L4.075 61.925L0 61L4.075 60.075L5 56Z" fill="#B2AFAE"/>
<path d="M155 10L156.11 14.89L161 16L156.11 17.11L155 22L153.89 17.11L149 16L153.89 14.89L155 10Z" fill="#B2AFAE"/>
<path d="M198 45L199.11 49.89L204 51L199.11 52.11L198 57L196.89 52.11L192 51L196.89 49.89L198 45Z" fill="#EFEFEF"/>
<path d="M181.5 101C183.433 101 185 99.433 185 97.5C185 95.567 183.433 94 181.5 94C179.567 94 178 95.567 178 97.5C178 99.433 179.567 101 181.5 101Z" fill="#EFEFEF"/>
<path d="M59 0L60.11 4.89L65 6L60.11 7.11L59 12L57.89 7.11L53 6L57.89 4.89L59 0Z" fill="#EFEFEF"/>
<path d="M76 83.3056L82.4151 89.0556L101.66 80.1111L84.9811 90.9722V98L88.1887 94.8056L92.0377 97.3611L110 75L76 83.3056Z" fill="#D0D0D0"/>
</g>
<defs>
<clipPath id="clip0_1160_43918">
<rect width="204" height="150" fill="white"/>
</clipPath>
</defs>
</svg>
