<svg width="32" height="32" viewBox="0 0 32 32" fill="none" xmlns="http://www.w3.org/2000/svg">
<path d="M12.5 14C12.2239 14 12 14.2239 12 14.5C12 14.7761 12.2239 15 12.5 15V14ZM20.5 15C20.7761 15 21 14.7761 21 14.5C21 14.2239 20.7761 14 20.5 14V15ZM17 10.5C17 10.2239 16.7761 10 16.5 10C16.2239 10 16 10.2239 16 10.5H17ZM16 18.5C16 18.7761 16.2239 19 16.5 19C16.7761 19 17 18.7761 17 18.5H16ZM28.1464 27.8536C28.3417 28.0488 28.6583 28.0488 28.8536 27.8536C29.0488 27.6583 29.0488 27.3417 28.8536 27.1464L28.1464 27.8536ZM12.5 15H20.5V14H12.5V15ZM16 10.5V18.5H17V10.5H16ZM23.1464 22.8536L28.1464 27.8536L28.8536 27.1464L23.8536 22.1464L23.1464 22.8536Z" fill="#333333"/>
<path d="M8.72233 22.2795L8.72044 22.2776C7.69611 21.2588 6.88408 20.0469 6.33129 18.7121C5.7785 17.3773 5.49598 15.9461 5.50005 14.5014L5.50004 14.4986C5.49598 13.0539 5.7785 11.6227 6.33129 10.2879C6.88408 8.95309 7.69611 7.74123 8.72044 6.72241L8.72044 6.72241L8.72233 6.72052C9.74119 5.69624 10.9531 4.88418 12.2879 4.33138C13.6227 3.77859 15.0539 3.49604 16.4986 3.50005L16.5014 3.50004C17.946 3.496 19.3769 3.77855 20.7115 4.33134C22.0461 4.88414 23.258 5.6962 24.2766 6.72048L24.2785 6.72245C25.303 7.74118 26.1152 8.95303 26.6682 10.2878C27.2212 11.6226 27.5039 13.0538 27.5 14.4986L27.5 14.5014C27.5039 15.9462 27.2212 17.3774 26.6682 18.7122C26.1152 20.047 25.303 21.2588 24.2785 22.2775L24.2766 22.2795C23.258 23.3038 22.0461 24.1159 20.7115 24.6687C19.3769 25.2214 17.946 25.504 16.5014 25.4999L16.4986 25.5C15.0539 25.504 13.6227 25.2214 12.2879 24.6686C10.9531 24.1158 9.74119 23.3038 8.72233 22.2795ZM16.5006 3.59528L16.4994 3.59528C13.6085 3.59862 10.8369 4.74852 8.79266 6.79272C6.74845 8.83693 5.59862 11.6085 5.59528 14.4994L5.59528 14.5006C5.59862 17.3915 6.74845 20.1631 8.79266 22.2073C10.8369 24.2515 13.6085 25.4014 16.4994 25.4047L16.5006 25.4047C19.3915 25.4014 22.1631 24.2515 24.2073 22.2073C26.2516 20.1631 27.4014 17.3915 27.4047 14.5006L27.4047 14.4994C27.4014 11.6085 26.2516 8.83693 24.2073 6.79272C22.1631 4.74852 19.3915 3.59862 16.5006 3.59528Z" stroke="#333333"/>
</svg>
