<svg width="17" height="16" viewBox="0 0 17 16" fill="none" xmlns="http://www.w3.org/2000/svg">
<g clip-path="url(#clip0_1197_49117)">
<path d="M6.64645 10.6464C6.45118 10.8417 6.45118 11.1583 6.64645 11.3536C6.84171 11.5488 7.15829 11.5488 7.35355 11.3536L6.64645 10.6464ZM10 8L10.3536 8.35355C10.5488 8.15829 10.5488 7.84171 10.3536 7.64645L10 8ZM7.35355 4.64645C7.15829 4.45118 6.84171 4.45118 6.64645 4.64645C6.45118 4.84171 6.45118 5.15829 6.64645 5.35355L7.35355 4.64645ZM7.35355 11.3536L10.3536 8.35355L9.64645 7.64645L6.64645 10.6464L7.35355 11.3536ZM10.3536 7.64645L7.35355 4.64645L6.64645 5.35355L9.64645 8.35355L10.3536 7.64645Z" fill="#333333"/>
</g>
<defs>
<clipPath id="clip0_1197_49117">
<rect width="16" height="16" fill="white" transform="translate(0.973389)"/>
</clipPath>
</defs>
</svg>
