<svg width="17" height="16" viewBox="0 0 17 16" fill="none" xmlns="http://www.w3.org/2000/svg">
<path d="M10.3536 5.35355C10.5488 5.15829 10.5488 4.84171 10.3536 4.64645C10.1583 4.45118 9.84171 4.45118 9.64645 4.64645L10.3536 5.35355ZM7 8L6.64645 7.64645C6.45118 7.84171 6.45118 8.15829 6.64645 8.35355L7 8ZM9.64645 11.3536C9.84171 11.5488 10.1583 11.5488 10.3536 11.3536C10.5488 11.1583 10.5488 10.8417 10.3536 10.6464L9.64645 11.3536ZM9.64645 4.64645L6.64645 7.64645L7.35355 8.35355L10.3536 5.35355L9.64645 4.64645ZM6.64645 8.35355L9.64645 11.3536L10.3536 10.6464L7.35355 7.64645L6.64645 8.35355Z" fill="#333333"/>
</svg>
