<svg width="17" height="15" viewBox="0 0 17 15" fill="none" xmlns="http://www.w3.org/2000/svg">
<path d="M14.1086 7.9454C14.1199 7.205 14.0151 6.46143 13.7936 5.73696C12.6646 2.04393 8.8392 -0.0622025 5.24788 1.03578C1.65655 2.13376 -0.337093 6.01893 0.791982 9.71197C1.92106 13.405 5.74643 15.5111 9.33775 14.4132C10.4034 14.0873 11.3522 13.5081 12.1231 12.7268C12.3043 12.5431 12.3031 12.2433 12.1203 12.0572C11.9376 11.8712 11.6425 11.8692 11.4613 12.0529C10.7969 12.7263 9.97988 13.2251 9.06047 13.5062C5.96263 14.4533 2.65839 12.6341 1.68183 9.43992C0.705267 6.24572 2.42731 2.88982 5.52516 1.94272C8.623 0.995611 11.9272 2.81482 12.9038 6.00902C13.1017 6.65619 13.1919 7.31975 13.1755 7.97948L12.0191 6.82312C11.8425 6.64648 11.5518 6.65072 11.3699 6.83259C11.1881 7.01447 11.1838 7.30511 11.3605 7.48176L13.1706 9.2919C13.1922 9.34206 13.2233 9.38888 13.264 9.42963C13.4407 9.60628 13.7313 9.60204 13.9132 9.42016L15.8891 7.44427C16.071 7.26239 16.0752 6.97176 15.8986 6.79511C15.7219 6.61846 15.4313 6.6227 15.2494 6.80458L14.1086 7.9454Z" fill="#333333"/>
</svg>
