<svg width="17" height="15" viewBox="0 0 17 15" fill="none" xmlns="http://www.w3.org/2000/svg">
<path d="M2.83814 7.94531C2.82686 7.20491 2.93158 6.46134 3.15307 5.73687C4.28214 2.04383 8.10751 -0.062294 11.6988 1.03568C15.2902 2.13366 17.2838 6.01884 16.1547 9.71188C15.0257 13.4049 11.2003 15.511 7.60896 14.4131C6.54327 14.0872 5.59448 13.508 4.82361 12.7267C4.64238 12.543 4.64362 12.2432 4.82637 12.0572C5.00912 11.8711 5.30419 11.8691 5.48542 12.0528C6.14979 12.7262 6.96683 13.225 7.88624 13.5061C10.9841 14.4532 14.2883 12.634 15.2649 9.43983C16.2414 6.24563 14.5194 2.88973 11.4216 1.94263C8.32372 0.99552 5.01948 2.81473 4.04292 6.00892C3.84506 6.6561 3.75486 7.31966 3.77126 7.97939L4.92762 6.82303C5.10426 6.64639 5.3949 6.65063 5.57678 6.8325C5.75865 7.01438 5.76289 7.30502 5.58625 7.48166L3.7761 9.29181C3.75456 9.34197 3.72344 9.38879 3.68268 9.42954C3.50604 9.60619 3.2154 9.60195 3.03352 9.42007L1.05763 7.44418C0.87575 7.2623 0.87151 6.97166 1.04816 6.79502C1.2248 6.61837 1.51544 6.62261 1.69732 6.80449L2.83814 7.94531Z" fill="#333333"/>
</svg>
