<svg width="729" height="537" viewBox="0 0 729 537" fill="none" xmlns="http://www.w3.org/2000/svg">
<path d="M360.096 535.277C314.437 531.447 272.638 513.25 251.821 486.84L267.603 474.595C278.385 488.196 296.594 499.243 318.265 506.492C340.259 513.85 365.891 517.322 391.118 515.557L391.119 515.557C420.964 513.462 446.821 504.294 462.015 490.286L462.559 489.784L462.057 489.24L450.629 476.85L491.59 474.521L488.065 517.335L476.718 505.032L476.216 504.489L475.672 504.989C456.97 522.196 427.506 533.073 392.578 535.518C381.761 536.271 370.902 536.19 360.097 535.277L360.096 535.277Z" stroke="#923094" stroke-width="1.48057"/>
<path d="M407.879 153.34V312.958C407.702 314.051 407.8 316.289 409.602 316.499L435.982 331.713" stroke="#923094" stroke-width="1.48057"/>
<path d="M407.837 153.582C407.705 152.182 408.178 149.803 411.122 151.482C414.065 153.162 479.181 190.669 511.372 209.213C512.204 209.825 513.868 211.548 513.868 213.542C513.868 215.537 513.868 288.285 513.868 324.411" stroke="#923094" stroke-width="1.48057"/>
<path d="M435.286 289.788C435.286 285.478 437.565 285.89 438.704 286.634C470.084 304.726 533.422 341.279 535.736 342.75C538.05 344.222 539.154 342.575 539.417 341.568C540.337 338.326 542.362 331.107 543.098 328.163C543.835 325.219 545.772 325.535 546.648 326.06C559.314 333.332 585.382 348.296 588.327 349.979C591.272 351.661 591.833 354.885 591.746 356.287V492.963C591.746 496.222 589.467 495.635 588.327 494.935C539.11 466.504 440.203 409.328 438.31 408.066C436.417 406.804 435.505 403.861 435.286 402.546V289.788Z" stroke="#923094" stroke-width="1.48057"/>
<path d="M437.372 287.53L441.708 284.772C442.058 284.509 442.995 284.142 443.941 284.772C444.887 285.402 508.802 321.891 540.641 340.057" stroke="#923094" stroke-width="1.48057"/>
<path d="M513.868 311.894L543.423 328.931" stroke="#923094" stroke-width="1.48057"/>
<path d="M545.857 327.222L550.579 323.941C550.842 323.723 551.655 323.469 552.809 324.204C553.964 324.939 580.926 340.785 594.263 348.616C595.024 349.305 596.417 351.017 596.871 353.078M596.871 353.078C596.964 353.503 597.018 353.942 597.018 354.391C597.018 357.015 597.018 436.332 597.018 475.663L618.138 367.778C618.269 366.815 618.164 364.707 616.695 363.972C615.226 363.237 602.867 356.403 596.871 353.078Z" stroke="#923094" stroke-width="1.48057"/>
<path d="M513.52 303.896L549.682 324.063" stroke="#923094" stroke-width="1.48057"/>
<path d="M513.868 297.637L621.561 360.362C622.262 360.668 623.505 361.989 622.875 364.824C622.244 367.658 607.027 447.626 599.497 487.256C598.797 490.011 596.319 495.365 592.011 494.735" stroke="#923094" stroke-width="1.48057"/>
<path d="M622.352 360.919L617.136 364.049" stroke="#923094" stroke-width="1.48057"/>
<rect x="415.452" y="168.58" width="106.206" height="3.24714" rx="1.0756" transform="rotate(29.6702 415.452 168.58)" stroke="#923094" stroke-width="1.48057"/>
<rect x="415.452" y="182.501" width="106.206" height="3.24714" rx="1.0756" transform="rotate(29.6702 415.452 182.501)" stroke="#923094" stroke-width="1.48057"/>
<rect x="415.452" y="197.473" width="106.206" height="3.24714" rx="1.0756" transform="rotate(29.6702 415.452 197.473)" stroke="#923094" stroke-width="1.48057"/>
<rect x="415.452" y="212.706" width="106.206" height="3.24714" rx="1.0756" transform="rotate(29.6702 415.452 212.706)" stroke="#923094" stroke-width="1.48057"/>
<rect x="415.452" y="228.727" width="106.206" height="3.24714" rx="1.0756" transform="rotate(29.6702 415.452 228.727)" stroke="#923094" stroke-width="1.48057"/>
<rect x="415.452" y="243.436" width="106.206" height="3.24714" rx="1.0756" transform="rotate(29.6702 415.452 243.436)" stroke="#923094" stroke-width="1.48057"/>
<rect x="415.452" y="257.62" width="106.206" height="3.24714" rx="1.0756" transform="rotate(29.6702 415.452 257.62)" stroke="#923094" stroke-width="1.48057"/>
<path d="M455.879 389.554L447.195 384.64V365.568L455.879 370.505V389.554Z" stroke="#923094" stroke-width="1.48057"/>
<path d="M467.251 396.385L459.014 391.732V372.657L467.251 377.309V396.385Z" stroke="#923094" stroke-width="1.48057"/>
<path d="M479.071 403.237L470.833 398.562V379.489L479.071 384.164V403.237Z" stroke="#923094" stroke-width="1.48057"/>
<path opacity="0.9" d="M490.234 410.15L482.127 405.398V386.338L490.234 391.091V410.15Z" stroke="#923094" stroke-width="1.48057"/>
<path opacity="0.7" d="M502.315 416.129L494.209 411.687V392.599L502.315 397.041V416.129Z" stroke="#923094" stroke-width="1.48057"/>
<path opacity="0.5" d="M513.478 422.036L505.766 417.982V398.879L513.478 402.933V422.036Z" stroke="#923094" stroke-width="1.48057"/>
<path opacity="0.3" d="M525.166 428.224L517.322 424.026V404.93L525.166 409.128V428.224Z" stroke="#923094" stroke-width="1.48057"/>
<path d="M442.354 388.086V356.699L560.678 425.251V455.193L442.354 388.086Z" stroke="#923094" stroke-width="1.48057"/>
<path d="M324.306 153.34V312.958C324.481 314.051 324.385 316.289 322.604 316.499L296.551 331.713" stroke="#923094" stroke-width="1.48057"/>
<path d="M324.348 153.582C324.479 152.182 324.006 149.803 321.063 151.482C318.12 153.162 253.004 190.669 220.813 209.213C219.981 209.825 218.317 211.548 218.317 213.542C218.317 215.537 218.317 288.285 218.317 324.411" stroke="#923094" stroke-width="1.48057"/>
<path d="M296.898 289.788C296.898 285.478 294.625 285.89 293.488 286.634C262.178 304.726 198.981 341.279 196.672 342.75C194.363 344.222 193.261 342.575 192.999 341.568C192.08 338.326 190.06 331.107 189.325 328.163C188.591 325.219 186.658 325.535 185.783 326.06C173.146 333.332 147.136 348.296 144.197 349.979C141.259 351.661 140.699 354.885 140.786 356.287V492.963C140.786 496.222 143.06 495.635 144.197 494.935C193.305 466.504 291.992 409.328 293.881 408.066C295.77 406.804 296.68 403.861 296.898 402.546V289.788Z" stroke="#923094" stroke-width="1.48057"/>
<path d="M294.812 287.53L290.491 284.772C290.142 284.509 289.208 284.142 288.265 284.772C287.322 285.402 223.623 321.891 191.891 340.057" stroke="#923094" stroke-width="1.48057"/>
<path d="M218.317 311.894L189.11 328.931" stroke="#923094" stroke-width="1.48057"/>
<path d="M186.327 327.222L181.605 323.941C181.342 323.723 180.529 323.469 179.375 324.204C178.22 324.939 151.258 340.785 137.921 348.616C137.16 349.305 135.767 351.017 135.313 353.078M135.313 353.078C135.22 353.503 135.166 353.942 135.166 354.391C135.166 357.015 135.166 436.332 135.166 475.663L114.046 367.778C113.915 366.815 114.02 364.707 115.489 363.972C116.958 363.237 129.317 356.403 135.313 353.078Z" stroke="#923094" stroke-width="1.48057"/>
<path d="M218.664 303.548L182.503 324.063" stroke="#923094" stroke-width="1.48057"/>
<path d="M218.317 297.637L110.623 360.362C109.923 360.668 108.68 361.989 109.31 364.824C109.94 367.658 125.158 447.626 132.687 487.256C133.388 490.011 135.866 495.365 140.173 494.735" stroke="#923094" stroke-width="1.48057"/>
<path d="M110.18 360.919L115.048 364.049" stroke="#923094" stroke-width="1.48057"/>
<rect x="-0.276779" y="1.00967" width="106.206" height="3.24714" rx="1.0756" transform="matrix(-0.868889 0.495007 0.495007 0.868889 316.147 167.762)" stroke="#923094" stroke-width="1.48057"/>
<rect x="-0.276779" y="1.00967" width="106.206" height="3.24714" rx="1.0756" transform="matrix(-0.868889 0.495007 0.495007 0.868889 316.147 181.682)" stroke="#923094" stroke-width="1.48057"/>
<rect x="-0.276779" y="1.00967" width="106.206" height="3.24714" rx="1.0756" transform="matrix(-0.868889 0.495007 0.495007 0.868889 316.147 196.654)" stroke="#923094" stroke-width="1.48057"/>
<rect x="-0.276779" y="1.00967" width="106.206" height="3.24714" rx="1.0756" transform="matrix(-0.868889 0.495007 0.495007 0.868889 316.147 211.887)" stroke="#923094" stroke-width="1.48057"/>
<rect x="-0.276779" y="1.00967" width="106.206" height="3.24714" rx="1.0756" transform="matrix(-0.868889 0.495007 0.495007 0.868889 316.147 227.908)" stroke="#923094" stroke-width="1.48057"/>
<rect x="-0.276779" y="1.00967" width="106.206" height="3.24714" rx="1.0756" transform="matrix(-0.868889 0.495007 0.495007 0.868889 316.147 242.618)" stroke="#923094" stroke-width="1.48057"/>
<rect x="-0.276779" y="1.00967" width="106.206" height="3.24714" rx="1.0756" transform="matrix(-0.868889 0.495007 0.495007 0.868889 316.147 256.801)" stroke="#923094" stroke-width="1.48057"/>
<path d="M185.349 421.799L176.665 426.713V445.785L185.349 440.848V421.799Z" stroke="#923094" stroke-width="1.48057"/>
<path d="M196.722 414.97L188.485 419.623V438.698L196.722 434.046V414.97Z" stroke="#923094" stroke-width="1.48057"/>
<path d="M208.542 408.117L200.304 412.792V431.865L208.542 427.19V408.117Z" stroke="#923094" stroke-width="1.48057"/>
<path opacity="0.9" d="M219.704 401.204L211.598 405.957V425.016L219.704 420.264V401.204Z" stroke="#923094" stroke-width="1.48057"/>
<path opacity="0.7" d="M231.786 395.226L223.68 399.668V418.756L231.786 414.314V395.226Z" stroke="#923094" stroke-width="1.48057"/>
<path opacity="0.5" d="M242.949 389.318L235.237 393.372V412.475L242.949 408.421V389.318Z" stroke="#923094" stroke-width="1.48057"/>
<path opacity="0.3" d="M254.637 383.129L246.793 387.327V406.424L254.637 402.226V383.129Z" stroke="#923094" stroke-width="1.48057"/>
<path d="M289.989 388.006V356.62L171.665 425.171V455.114L289.989 388.006Z" stroke="#923094" stroke-width="1.48057"/>
<path d="M234.759 23.3554C233.577 22.042 231.563 15.1247 231.738 11.0093C224.594 9.53831 212.477 18.6271 207.312 23.3554C210.766 29.4845 229.096 41.0799 249.861 52.7164M234.759 23.3554C249.861 21.9106 283.297 15.8427 296.219 3.12891C307.557 13.5486 335.748 35.9641 357.811 42.2685C344.065 55.6215 313.685 81.8546 302.129 79.9633C288.558 73.3623 268.254 63.0233 249.861 52.7164M234.759 23.3554C235.591 26.7306 239.775 37.3282 249.861 52.7164M409.027 57.504C407.767 71.1635 424.874 77.2051 433.585 78.5185L455.517 51.1997M409.027 57.504C410.603 40.4297 463.002 -2.91277 492.288 10.878C501.393 13.68 521.967 21.9106 531.422 32.4179L500.824 70.5068C491.5 62.6263 469.384 47.7323 455.517 51.1997M409.027 57.504C419.323 50.4641 444.31 50.3678 455.517 51.1997M602.863 338.967H714.096L727.36 245.321H696.892M602.863 338.967L610.612 253.727H671.415L675.355 245.321H696.892M602.863 338.967L602.188 336.175M598.924 260.82H583.953L602.188 336.175M598.924 260.82L595.378 235.996L696.892 230.48V245.321M598.924 260.82L602.188 336.175M1 246.109L17.2843 339.361H125.234M125.234 339.361L119.324 255.96L60.6216 253.071L53.7927 242.169L33.0433 242.974M125.234 339.361L132.432 259.375M125.234 339.361L144.013 259.375H132.432M2.96988 244.139L33.0433 242.974M33.0433 242.974V230.874L134.689 234.289L132.432 259.375M96.2108 77.8618L70.471 159.687L173.955 177.287L193.654 100.19C166.82 100.452 109.764 96.3546 96.2108 77.8618ZM591.044 78.3872C580.363 98.6575 552.723 138.725 527.614 136.834C542.979 154.652 578.043 191.078 595.378 194.23C610.83 186.7 644.651 167.069 656.313 148.786C637.708 136.002 598.608 104.025 591.044 78.3872Z" stroke="#923094" stroke-width="1.48057"/>
<path d="M77.1475 225.314C82.8913 208.511 99.9034 174.695 122.002 173.853" stroke="#923094" stroke-width="1.48057" stroke-dasharray="2.02 2.02"/>
<path d="M166.207 89.5641C179.512 73.4786 211.744 43.3422 234.233 51.4798" stroke="#923094" stroke-width="1.48057" stroke-dasharray="2.02 2.02"/>
<path d="M345.86 25.4454C357.213 20.3945 387.605 13.3215 418.352 25.4371" stroke="#923094" stroke-width="1.48057" stroke-dasharray="2.02 2.02"/>
<path d="M518.144 56.269C534.052 59.9454 567.2 73.4323 572.527 97.9691" stroke="#923094" stroke-width="1.48057" stroke-dasharray="2.02 2.02"/>
<path d="M632.149 177.492C642.993 182.52 666.021 199.106 671.374 225.218" stroke="#923094" stroke-width="1.48057" stroke-dasharray="2.02 2.02"/>
</svg>
