<svg width="1010" height="745" viewBox="0 0 1010 745" fill="none" xmlns="http://www.w3.org/2000/svg">
<path d="M640.575 680.18L641.119 679.678L640.617 679.133L624.345 661.492L682.125 658.208L677.153 718.603L660.962 701.049L660.461 700.506L659.917 701.006C633.9 724.942 592.942 740.052 544.429 743.448C529.403 744.493 514.318 744.381 499.309 743.112L499.309 743.112C435.77 737.783 377.565 712.417 348.671 675.558L371.026 658.215C385.918 677.131 411.211 692.518 441.373 702.609C471.859 712.807 507.392 717.621 542.364 715.174L542.364 715.174C583.745 712.269 619.556 699.559 640.575 680.18Z" stroke="#923094" stroke-width="1.48057"/>
<path d="M565.643 212.796V434.305C565.398 435.822 565.533 438.928 568.035 439.22L604.642 460.333" stroke="#923094" stroke-width="1.48057"/>
<path d="M565.585 213.132C565.402 211.19 566.059 207.888 570.143 210.219C574.227 212.549 664.592 264.599 709.264 290.333C710.419 291.183 712.728 293.574 712.728 296.342C712.728 299.109 712.728 400.066 712.728 450.198" stroke="#923094" stroke-width="1.48057"/>
<path d="M603.677 402.152C603.677 396.17 606.839 396.741 608.421 397.775C651.968 422.882 739.864 473.607 743.075 475.65C746.286 477.692 747.819 475.406 748.184 474.008C749.461 469.51 752.271 459.491 753.293 455.406C754.315 451.32 757.003 451.758 758.219 452.488C775.796 462.579 811.972 483.346 816.059 485.68C820.146 488.015 820.924 492.489 820.803 494.434V684.106C820.803 688.629 817.64 687.814 816.059 686.842C747.758 647.388 610.501 568.042 607.873 566.291C605.246 564.54 603.981 560.455 603.677 558.631V402.152Z" stroke="#923094" stroke-width="1.48057"/>
<path d="M606.572 399.017L612.588 395.19C613.075 394.826 614.375 394.315 615.688 395.19C617.001 396.065 705.698 446.702 749.882 471.911" stroke="#923094" stroke-width="1.48057"/>
<path d="M712.728 432.828L753.743 456.472" stroke="#923094" stroke-width="1.48057"/>
<path d="M757.121 454.101L763.674 449.547C764.038 449.244 765.167 448.891 766.769 449.911C768.371 450.931 805.788 472.921 824.296 483.789C825.353 484.745 827.286 487.121 827.915 489.982M827.915 489.982C828.045 490.571 828.119 491.181 828.119 491.803C828.119 495.446 828.119 605.517 828.119 660.097L857.429 510.381C857.611 509.045 857.465 506.119 855.426 505.099C853.387 504.079 836.236 494.596 827.915 489.982Z" stroke="#923094" stroke-width="1.48057"/>
<path d="M712.246 421.729L762.429 449.716" stroke="#923094" stroke-width="1.48057"/>
<path d="M712.728 413.043L862.179 500.089C863.151 500.514 864.877 502.347 864.002 506.281C863.127 510.214 842.009 621.189 831.56 676.185C830.588 680.009 827.149 687.439 821.171 686.565" stroke="#923094" stroke-width="1.48057"/>
<path d="M863.276 500.863L856.039 505.206" stroke="#923094" stroke-width="1.48057"/>
<rect x="576.046" y="233.555" width="147.961" height="5.08027" rx="1.0756" transform="rotate(29.6702 576.046 233.555)" stroke="#923094" stroke-width="1.48057"/>
<rect x="576.046" y="252.872" width="147.961" height="5.08027" rx="1.0756" transform="rotate(29.6702 576.046 252.872)" stroke="#923094" stroke-width="1.48057"/>
<rect x="576.046" y="273.649" width="147.961" height="5.08027" rx="1.0756" transform="rotate(29.6702 576.046 273.649)" stroke="#923094" stroke-width="1.48057"/>
<rect x="576.046" y="294.789" width="147.961" height="5.08027" rx="1.0756" transform="rotate(29.6702 576.046 294.789)" stroke="#923094" stroke-width="1.48057"/>
<rect x="576.046" y="317.023" width="147.961" height="5.08027" rx="1.0756" transform="rotate(29.6702 576.046 317.023)" stroke="#923094" stroke-width="1.48057"/>
<rect x="576.046" y="337.435" width="147.961" height="5.08027" rx="1.0756" transform="rotate(29.6702 576.046 337.435)" stroke="#923094" stroke-width="1.48057"/>
<rect x="576.046" y="357.118" width="147.961" height="5.08027" rx="1.0756" transform="rotate(29.6702 576.046 357.118)" stroke="#923094" stroke-width="1.48057"/>
<path d="M632.542 541.093L619.916 533.949V506.821L632.542 513.998V541.093Z" stroke="#923094" stroke-width="1.48057"/>
<path d="M648.324 550.572L636.318 543.791V516.659L648.324 523.441V550.572Z" stroke="#923094" stroke-width="1.48057"/>
<path d="M664.726 560.083L652.72 553.269V526.14L664.726 532.954V560.083Z" stroke="#923094" stroke-width="1.48057"/>
<path opacity="0.9" d="M680.217 569.684L668.394 562.752V535.637L680.217 542.569V569.684Z" stroke="#923094" stroke-width="1.48057"/>
<path opacity="0.7" d="M696.983 577.964L685.16 571.485V544.342L696.983 550.821V577.964Z" stroke="#923094" stroke-width="1.48057"/>
<path opacity="0.5" d="M712.474 586.153L701.198 580.225V553.066L712.474 558.994V586.153Z" stroke="#923094" stroke-width="1.48057"/>
<path opacity="0.3" d="M728.694 594.744L717.235 588.611V561.459L728.694 567.592V594.744Z" stroke="#923094" stroke-width="1.48057"/>
<path d="M613.485 538.564V495.007L777.688 590.14V631.692L613.485 538.564Z" stroke="#923094" stroke-width="1.48057"/>
<path d="M449.666 212.796V434.305C449.908 435.822 449.775 438.928 447.304 439.22L411.149 460.333" stroke="#923094" stroke-width="1.48057"/>
<path d="M449.724 213.132C449.906 211.19 449.25 207.888 445.165 210.219C441.081 212.549 350.716 264.599 306.044 290.333C304.89 291.183 302.58 293.574 302.58 296.342C302.58 299.109 302.58 400.066 302.58 450.198" stroke="#923094" stroke-width="1.48057"/>
<path d="M411.631 402.152C411.631 396.17 408.475 396.741 406.897 397.775C363.447 422.882 275.746 473.607 272.542 475.65C269.338 477.692 267.809 475.406 267.445 474.008C266.17 469.51 263.367 459.491 262.347 455.406C261.328 451.32 258.645 451.758 257.432 452.488C239.894 462.579 203.799 483.346 199.721 485.68C195.643 488.015 194.866 492.489 194.988 494.434V684.106C194.988 688.629 198.143 687.814 199.721 686.842C267.869 647.388 404.822 568.042 407.444 566.291C410.065 564.54 411.327 560.455 411.631 558.631V402.152Z" stroke="#923094" stroke-width="1.48057"/>
<path d="M408.736 399.017L402.739 395.19C402.255 394.826 400.958 394.315 399.65 395.19C398.342 396.065 309.943 446.702 265.908 471.911" stroke="#923094" stroke-width="1.48057"/>
<path d="M302.58 432.828L262.048 456.472" stroke="#923094" stroke-width="1.48057"/>
<path d="M258.187 454.101L251.633 449.547C251.269 449.244 250.14 448.891 248.538 449.911C246.936 450.931 209.519 472.921 191.011 483.789C189.954 484.745 188.022 487.121 187.392 489.982M187.392 489.982C187.262 490.571 187.188 491.181 187.188 491.803C187.188 495.446 187.188 605.517 187.188 660.097L157.878 510.381C157.696 509.045 157.842 506.119 159.881 505.099C161.92 504.079 179.071 494.596 187.392 489.982Z" stroke="#923094" stroke-width="1.48057"/>
<path d="M303.062 421.246L252.879 449.715" stroke="#923094" stroke-width="1.48057"/>
<path d="M302.58 413.043L153.129 500.089C152.157 500.514 150.431 502.347 151.306 506.281C152.181 510.214 173.299 621.189 183.748 676.185C184.72 680.009 188.159 687.439 194.137 686.565" stroke="#923094" stroke-width="1.48057"/>
<path d="M152.513 500.863L159.269 505.206" stroke="#923094" stroke-width="1.48057"/>
<rect x="-0.276779" y="1.00967" width="147.961" height="5.08027" rx="1.0756" transform="matrix(-0.868889 0.495007 0.495007 0.868889 438.738 232.706)" stroke="#923094" stroke-width="1.48057"/>
<rect x="-0.276779" y="1.00967" width="147.961" height="5.08027" rx="1.0756" transform="matrix(-0.868889 0.495007 0.495007 0.868889 438.738 252.024)" stroke="#923094" stroke-width="1.48057"/>
<rect x="-0.276779" y="1.00967" width="147.961" height="5.08027" rx="1.0756" transform="matrix(-0.868889 0.495007 0.495007 0.868889 438.738 272.801)" stroke="#923094" stroke-width="1.48057"/>
<rect x="-0.276779" y="1.00967" width="147.961" height="5.08027" rx="1.0756" transform="matrix(-0.868889 0.495007 0.495007 0.868889 438.738 293.94)" stroke="#923094" stroke-width="1.48057"/>
<rect x="-0.276779" y="1.00967" width="147.961" height="5.08027" rx="1.0756" transform="matrix(-0.868889 0.495007 0.495007 0.868889 438.738 316.173)" stroke="#923094" stroke-width="1.48057"/>
<rect x="-0.276779" y="1.00967" width="147.961" height="5.08027" rx="1.0756" transform="matrix(-0.868889 0.495007 0.495007 0.868889 438.738 336.587)" stroke="#923094" stroke-width="1.48057"/>
<rect x="-0.276779" y="1.00967" width="147.961" height="5.08027" rx="1.0756" transform="matrix(-0.868889 0.495007 0.495007 0.868889 438.738 356.268)" stroke="#923094" stroke-width="1.48057"/>
<path d="M257.116 584.856L244.491 592V619.128L257.116 611.95V584.856Z" stroke="#923094" stroke-width="1.48057"/>
<path d="M272.899 575.38L260.893 582.161V609.292L272.899 602.511V575.38Z" stroke="#923094" stroke-width="1.48057"/>
<path d="M289.302 565.868L277.296 572.682V599.811L289.302 592.997V565.868Z" stroke="#923094" stroke-width="1.48057"/>
<path opacity="0.9" d="M304.792 556.267L292.969 563.199V590.314L304.792 583.383V556.267Z" stroke="#923094" stroke-width="1.48057"/>
<path opacity="0.7" d="M321.559 547.987L309.736 554.466V581.609L321.559 575.131V547.987Z" stroke="#923094" stroke-width="1.48057"/>
<path opacity="0.5" d="M337.049 539.797L325.773 545.725V572.884L337.049 566.956V539.797Z" stroke="#923094" stroke-width="1.48057"/>
<path opacity="0.3" d="M353.269 531.206L341.81 537.338V564.491L353.269 558.358V531.206Z" stroke="#923094" stroke-width="1.48057"/>
<path d="M402.042 538.453V494.896L237.839 590.028V631.58L402.042 538.453Z" stroke="#923094" stroke-width="1.48057"/>
<path d="M325.397 32.4114C323.757 30.5888 320.962 20.9893 321.205 15.2783C311.291 13.2369 294.476 25.8498 287.308 32.4114C292.101 40.917 317.538 57.0086 346.355 73.1569M325.397 32.4114C346.355 30.4065 392.755 21.9858 410.688 4.34229C426.422 18.8022 465.544 49.9091 496.161 58.6579C477.086 77.1884 434.927 113.593 418.889 110.969C400.057 101.808 371.88 87.4602 346.355 73.1569M325.397 32.4114C326.551 37.0954 332.359 51.8022 346.355 73.1569M567.237 79.8009C565.487 98.7567 589.228 107.141 601.317 108.964L631.752 71.0521M567.237 79.8009C569.424 56.1062 642.14 -4.04201 682.781 15.0961C695.416 18.9844 723.968 30.4065 737.09 44.9879L694.626 97.8454C681.687 86.9093 650.997 66.2402 631.752 71.0521M567.237 79.8009C581.525 70.0314 616.2 69.8977 631.752 71.0521M836.231 470.4H990.593L1009 340.443H966.719M836.231 470.4L846.984 352.108H931.363L936.831 340.443H966.719M836.231 470.4L835.293 466.524M830.764 361.951H809.988L835.293 466.524M830.764 361.951L825.843 327.502L966.719 319.847V340.443M830.764 361.951L835.293 466.524M1 341.537L23.5984 470.946H173.404M173.404 470.946L165.203 355.207L83.7395 351.197L74.2627 336.069L45.4679 337.185M173.404 470.946L183.393 359.946M173.404 470.946L199.465 359.946H183.393M3.73368 338.803L45.4679 337.185M45.4679 337.185V320.394L186.526 325.133L183.393 359.946M133.128 108.052L97.4079 221.605L241.017 246.029L268.354 139.038C231.115 139.402 151.936 133.716 133.128 108.052ZM819.829 108.781C805.006 136.911 766.65 192.515 731.805 189.89C753.127 214.618 801.787 265.167 825.843 269.541C847.287 259.091 894.222 231.848 910.405 206.477C884.587 188.736 830.326 144.36 819.829 108.781Z" stroke="#923094" stroke-width="1.48057"/>
<path d="M106.673 312.677C114.644 289.36 138.253 242.432 168.919 241.263" stroke="#923094" stroke-width="1.48057" stroke-dasharray="2.02 2.02"/>
<path d="M230.265 124.292C248.729 101.969 293.459 60.1475 324.668 71.4405" stroke="#923094" stroke-width="1.48057" stroke-dasharray="2.02 2.02"/>
<path d="M479.577 35.3116C495.332 28.3023 537.508 18.4868 580.177 35.3001" stroke="#923094" stroke-width="1.48057" stroke-dasharray="2.02 2.02"/>
<path d="M718.663 78.087C740.739 83.1889 786.74 101.905 794.132 135.956" stroke="#923094" stroke-width="1.48057" stroke-dasharray="2.02 2.02"/>
<path d="M876.872 246.313C891.921 253.291 923.878 276.308 931.307 312.544" stroke="#923094" stroke-width="1.48057" stroke-dasharray="2.02 2.02"/>
</svg>
