<svg width="16" height="16" viewBox="0 0 16 16" fill="none" xmlns="http://www.w3.org/2000/svg">
<path fill-rule="evenodd" clip-rule="evenodd" d="M12.7141 12.7141C11.5076 13.9205 9.84097 14.6667 8.00004 14.6667C6.15911 14.6667 4.49244 13.9205 3.28599 12.7141C2.07957 11.5076 1.33337 9.84097 1.33337 8.00004C1.33337 6.15911 2.07957 4.49244 3.28599 3.28599C4.49244 2.07957 6.15911 1.33337 8.00004 1.33337C9.84097 1.33337 11.5076 2.07957 12.7141 3.28599C13.9205 4.49244 14.6667 6.15911 14.6667 8.00004C14.6667 9.84097 13.9205 11.5076 12.7141 12.7141ZM5.50006 9.62218C5.25758 9.86466 5.25758 10.2578 5.50006 10.5003C5.74255 10.7428 6.1357 10.7428 6.37818 10.5003L8.01348 8.865L9.64103 10.4926C9.88041 10.7319 10.2685 10.7319 10.5079 10.4926C10.7473 10.2532 10.7473 9.86505 10.5079 9.62566L8.88037 7.99811L10.5002 6.3783C10.7427 6.13581 10.7427 5.74267 10.5002 5.50018C10.2577 5.25769 9.86455 5.25769 9.62206 5.50018L8.00225 7.11999L6.3747 5.49244C6.13531 5.25305 5.74719 5.25305 5.5078 5.49244C5.26842 5.73183 5.26842 6.11995 5.5078 6.35933L7.13536 7.98688L5.50006 9.62218Z" fill="#CACACA" fill-opacity="0.6"/>
</svg>
