<svg width="26" height="26" viewBox="0 0 26 26" fill="none" xmlns="http://www.w3.org/2000/svg">
<path d="M17.875 4.6712H8.125C7.90064 4.6712 7.71875 4.84757 7.71875 5.06514V10.5803C7.71875 10.7979 7.90064 10.9742 8.125 10.9742H17.875C18.0993 10.9742 18.2812 10.7979 18.2812 10.5803V5.06514C18.2812 4.84757 18.0993 4.6712 17.875 4.6712Z" stroke="white"/>
<path d="M14.2188 7.42877H11.7812C11.5569 7.42877 11.375 7.60515 11.375 7.82271C11.375 8.0403 11.5569 8.21663 11.7812 8.21663H14.2188C14.4431 8.21663 14.625 8.0403 14.625 7.82271C14.625 7.60515 14.4431 7.42877 14.2188 7.42877Z" fill="white"/>
<path d="M21.5312 12.7264V5.06514C21.5312 4.84757 21.3493 4.6712 21.125 4.6712H4.875C4.65064 4.6712 4.46875 4.84757 4.46875 5.06514V20.8227C4.46875 21.0403 4.65064 21.2166 4.875 21.2166H13" stroke="white"/>
<path d="M22.75 14.9136H15.4375C15.2132 14.9136 15.0312 15.09 15.0312 15.3075V21.6106C15.0312 21.8282 15.2132 22.0045 15.4375 22.0045H22.75C22.9743 22.0045 23.1562 21.8282 23.1562 21.6106V15.3075C23.1562 15.09 22.9743 14.9136 22.75 14.9136Z" stroke="white"/>
<path d="M21.125 16.8833H17.0625V17.6712H21.125V16.8833Z" fill="white"/>
<path d="M21.125 19.2469H17.0625V20.0348H21.125V19.2469Z" fill="white"/>
</svg>
