<svg width="26" height="26" viewBox="0 0 26 26" fill="none" xmlns="http://www.w3.org/2000/svg">
<path d="M4.46875 2.84375H20.7188C21.1675 2.84375 21.5312 3.20752 21.5312 3.65625V20.7188C21.5312 21.1675 21.1675 21.5312 20.7188 21.5312H15.0312M4.46875 2.84375V20.8342C4.46875 21.2353 4.76134 21.5763 5.1577 21.6373L14.0952 23.0123C14.5874 23.088 15.0312 22.7072 15.0312 22.2092V21.5312M4.46875 2.84375L14.3423 4.36276C14.7387 4.42374 15.0312 4.76478 15.0312 5.16581V21.5312M4.46875 2.84375L15.0312 4.36276V21.5312" stroke="white" stroke-linecap="round" stroke-linejoin="round"/>
<path d="M16.6562 6.90625H19.9062" stroke="white" stroke-linecap="round" stroke-linejoin="round"/>
<path d="M16.6562 11.7812H19.9062" stroke="white" stroke-linecap="round" stroke-linejoin="round"/>
<path d="M16.6562 16.6562H19.9062" stroke="white" stroke-linecap="round" stroke-linejoin="round"/>
</svg>
