<svg width="26" height="26" viewBox="0 0 26 26" fill="none" xmlns="http://www.w3.org/2000/svg">
<path d="M15.1667 1.625C15.1667 1.32585 14.9241 1.08334 14.625 1.08334C14.3259 1.08334 14.0833 1.32585 14.0833 1.625V7.04167C14.0833 7.34082 14.3259 7.58334 14.625 7.58334C14.9241 7.58334 15.1667 7.34082 15.1667 7.04167V1.625Z" fill="white"/>
<path d="M20.0417 6.5H14.625C14.3259 6.5 14.0833 6.74251 14.0833 7.04167C14.0833 7.34082 14.3259 7.58333 14.625 7.58333H20.0417C20.3408 7.58333 20.5833 7.34082 20.5833 7.04167C20.5833 6.74251 20.3408 6.5 20.0417 6.5Z" fill="white"/>
<path d="M18.5372 23.8326H4.21272C3.67922 23.8412 3.16411 23.6382 2.78028 23.2676C2.39643 22.8969 2.17558 22.3887 2.1656 21.8553V3.06193C2.1753 2.52816 2.39643 2.0201 2.78028 1.64905C3.16411 1.27801 3.67893 1.07412 4.21272 1.08253H15.5718L20.5833 6.02259V21.8553C20.5734 22.3885 20.3523 22.8965 19.9686 23.2671C19.585 23.6377 19.0706 23.8409 18.5372 23.8326ZM4.26456 2.16585C4.00001 2.16151 3.745 2.2624 3.55469 2.44621C3.36438 2.63003 3.25484 2.8815 3.25 3.14604V21.768C3.25484 22.0325 3.36438 22.284 3.55469 22.4678C3.745 22.6516 4.00001 22.7525 4.26456 22.7482H18.4855C18.75 22.7525 19.005 22.6516 19.1954 22.4678C19.3856 22.284 19.4951 22.0325 19.5 21.768V6.49919L15.1667 2.16585H4.26456Z" fill="white"/>
<path d="M8.125 11.375L14.6456 17.875" stroke="white" stroke-linecap="round"/>
<path d="M14.6456 11.375L8.125 17.875" stroke="white" stroke-linecap="round"/>
</svg>
