<svg width="32" height="32" viewBox="0 0 32 32" fill="none" xmlns="http://www.w3.org/2000/svg">
<path d="M18.6667 2.00001C18.6667 1.63182 18.3681 1.33334 18 1.33334C17.6319 1.33334 17.3333 1.63182 17.3333 2.00001V8.66668C17.3333 9.03486 17.6319 9.33334 18 9.33334C18.3681 9.33334 18.6667 9.03486 18.6667 8.66668V2.00001Z" fill="#707070"/>
<path d="M24.6667 8H18C17.6319 8 17.3333 8.29848 17.3333 8.66667C17.3333 9.03485 17.6319 9.33333 18 9.33333H24.6667C25.0348 9.33333 25.3333 9.03485 25.3333 8.66667C25.3333 8.29848 25.0348 8 24.6667 8Z" fill="#707070"/>
<path d="M22.8151 29.3324H5.18489C4.52827 29.3431 3.89429 29.0932 3.42188 28.6371C2.94945 28.1808 2.67764 27.5553 2.66536 26.8988V3.76853C2.67729 3.11159 2.94945 2.48628 3.42188 2.0296C3.89429 1.57293 4.52792 1.32199 5.18489 1.33234H19.1653L25.3333 7.41241V26.8988C25.3211 27.5551 25.0489 28.1803 24.5768 28.6364C24.1047 29.0925 23.4715 29.3427 22.8151 29.3324ZM5.24869 2.66567C4.92309 2.66032 4.60923 2.78449 4.375 3.01072C4.14077 3.23696 4.00596 3.54647 4 3.87205V26.7913C4.00596 27.1169 4.14077 27.4264 4.375 27.6527C4.60923 27.8789 4.92309 28.0031 5.24869 27.9977H22.7513C23.0769 28.0031 23.3908 27.8789 23.6251 27.6527C23.8592 27.4264 23.994 27.1169 24 26.7913V7.999L18.6667 2.66567H5.24869Z" fill="#707070"/>
<path d="M10 14L18.0253 22" stroke="#707070" stroke-linecap="round"/>
<path d="M18.0253 14L10 22" stroke="#707070" stroke-linecap="round"/>
</svg>
