<svg width="125" height="52" viewBox="0 0 125 52" fill="none" xmlns="http://www.w3.org/2000/svg">
<path d="M23.2525 27.0424C24.9168 24.2946 27.4748 21.9038 30.049 20.0417H18.1188C19.2593 10.8844 24.4905 10.0811 31.3321 10.1688C32.7267 10.2116 34.1198 10.2566 35.5972 10.2566L36.991 0.136557H36.864C35.0055 0.0915483 33.1906 0.00382019 31.3321 0.00382019C20.3104 -0.0839079 9.88117 1.22972 6.88291 15.4691C4.85601 25.0635 1.7728 41.0125 0 51.5711H14.1876L17.485 30.6003C17.485 30.4676 17.5271 30.3379 17.5707 30.2494H21.5728C21.8705 29.5483 22.2147 28.8709 22.5789 28.205C22.6889 27.9967 22.8079 27.7938 22.9238 27.5893C23.0317 27.4055 23.1395 27.2224 23.2525 27.0424Z" fill="#FF5F00"/>
<path d="M40.9567 20.0531C32.4346 20.0531 24.6114 27.2048 23.4827 36.0264C22.354 44.8481 28.3476 51.9998 36.8689 51.9998C45.3901 51.9998 53.2141 44.8488 54.3428 36.0264C55.4715 27.2048 49.4779 20.0531 40.9567 20.0531ZM45.9257 36.0264C45.4123 40.036 41.8571 43.2865 37.9835 43.2865C34.1099 43.2865 31.3865 40.036 31.8991 36.0264C32.4125 32.0169 35.9677 28.7664 39.8413 28.7664C43.7148 28.7664 46.4383 32.0169 45.9257 36.0264Z" fill="#FF5F00"/>
<path d="M102.612 16.9476L103.416 9.05514H97.2757H92.4906L91.1787 16.9476H97.2757H102.612Z" fill="#FF5F00"/>
<path d="M86.1396 52H99.2244L101.468 29.939H105.184L104.253 38.9636C103.405 47.3351 108.911 52.2609 116.362 51.9123L121.74 51.7368L122.715 42.5398H119.369C117.167 42.5398 115.092 41.7976 115.474 38.3976L116.319 29.8963H123.858L125 20.2165H116.997L117.758 12.6742H107.003L106.241 20.2165H90.7534L86.0547 51.8253" fill="#FF5F00"/>
<path d="M70.0219 47.0689C69.5528 47.2016 69.1067 47.3298 68.6782 47.4541L71.1616 51.9992H83.2204L78.3895 43.157C76.3596 44.4706 73.7233 45.7652 70.1681 47.0223L70.0219 47.0689Z" fill="#FF5F00"/>
<path d="M67.8156 23.8018L65.7946 20.1028H53.7358L59.1636 30.0374C61.4778 27.5497 64.4443 25.4145 67.8156 23.8018Z" fill="#FF5F00"/>
<path d="M54.1572 50.6418C54.1572 50.6418 54.5938 42.4313 58.0493 36.4993C60.9486 30.2508 68.613 25.0192 77.3093 23.5156C77.3093 23.5156 84.6162 21.7648 86.8795 20.4054C86.8795 20.4054 89.3415 18.7577 88.2298 22.5887C88.2298 22.5887 86.7554 26.2977 82.2082 28.7053C81.1364 29.2621 80.3394 29.3865 80.5078 30.4453C80.8121 31.5209 82.5509 30.7032 82.7888 30.5796C83.2024 30.2264 87.2326 29.0852 84.5468 33.0627C81.8462 37.1821 80.2071 40.9193 69.7232 44.6268C62.7339 46.6041 59.9543 47.7163 55.9035 51.5062C53.878 52.9922 54.1565 50.6411 54.1565 50.6411L54.1572 50.6418Z" fill="#FF5F00"/>
</svg>
