<svg viewBox="0 0 125 52" width="125" height="52" fill="none" xmlns="http://www.w3.org/2000/svg">
    <path d="M101.547 17.047l.799-7.788h-10.84l-1.304 7.788H101.547zM31.17 20.97c.63-.386 1.22-.73 1.85-.99H18.105c1.134-8.991 6.258-9.508 13.066-9.421 1.388.041 2.773.086 4.243.086L36.799.706h-.125C34.824.665 33.02.578 31.17.578 20.205.491 9.828 1.781 6.848 15.764 4.829 25.183 1.764 40.844 0 51.213h14.115l3.36-20.863c0-.132.044-.26.085-.347h6.637c.84-3.957 3.655-7.054 6.974-9.034z" fill="#F36B16"></path>
    <path d="M115.494 29.823h7.477l1.135-9.55h-7.939l.756-7.443h-10.672l-.758 7.442H89.782l-4.663 31.19-9.032-14.97 12.392-16.22H75.413l-5.168 6.496-3.908-6.45H54.365L63.27 35.46l-9.408 11.784-3.573 4.474h3.573l10.793-.087 4.582-6.062 3.567 6.062H98.175l2.228-21.767h4.034l-.925 8.905c-.843 8.26 4.623 13.12 12.016 12.776l5.334-.174.965-9.075h-3.319c-2.184 0-4.243-.732-3.864-4.089l.85-8.385z" fill="#F36B16"></path>
    <path d="M37.736 51.774h2.04c3.492-.35 6.945-1.63 9.346-4.092 2.235-2.285 4.087-5.667 4.331-9.133.235-3.273-.683-4.961-2.206-6.614-.198 1.688.019 3.267-.511 4.612-.928-1.255-1.26-3.12-2.636-3.919.054 4.91-2.648 8.527-7.731 7.05.953 2.594 3.256 3.797 6.882 3.653.172.202-.163.43-.254.523-1.285 1.325-3.26 2.352-5.694 2.352-4.548 0-7.512-3.225-7.56-7.83-.065-6.06 5.35-10.88 10.875-11.226 2.968-.186 5.676 1.46 6.967 3.306-.608-4.423-4.043-5.954-7.562-7.398 7.387-.34 10.68 3.508 12.915 8.44-1.028-6.954-4.81-11.838-12.323-12.442-.793 0-9.094-.603-14.955 6.265-2.933 3.44-5.431 7.936-5.011 13.921.495 7.064 5.522 12.192 13.087 12.532z" fill="#F36B16"></path>
</svg>