<svg id="图层_1" data-name="图层 1" xmlns="http://www.w3.org/2000/svg" viewBox="0 0 24 24"><defs><style>.cls-1{fill:#555;}.cls-2{fill:none;stroke:#555;stroke-miterlimit:10;}</style></defs><title>显示</title><g id="显示"><path class="cls-1" d="M20.4,13.62a.6.6,0,0,0-.82.18,9,9,0,0,1-7.66,4,9.06,9.06,0,0,1-7.66-4,.59.59,0,0,0-.82-.21.64.64,0,0,0-.22.24.73.73,0,0,0-.07.24v.07a.63.63,0,0,0,.1.3A10.27,10.27,0,0,0,11.92,19a10.26,10.26,0,0,0,8.67-4.58.61.61,0,0,0-.19-.82Z"/><path class="cls-1" d="M20.33,14.25a.61.61,0,0,0,.2-.82,10.28,10.28,0,0,0-8.68-4.58,10.27,10.27,0,0,0-8.67,4.58.62.62,0,0,0-.09.3v.07a.53.53,0,0,0,.06.24.64.64,0,0,0,.22.24.6.6,0,0,0,.83-.21,9,9,0,0,1,7.65-4,9,9,0,0,1,7.66,4,.61.61,0,0,0,.82.18Z"/><path class="cls-1" d="M12.05,2.92a.65.65,0,0,0-.65.66V6.19a.65.65,0,1,0,1.3,0V3.58A.65.65,0,0,0,12.05,2.92ZM4.66,6a.63.63,0,0,0-.46.2.64.64,0,0,0,0,.92L6.05,9a.62.62,0,0,0,.46.19A.65.65,0,0,0,7,9,.67.67,0,0,0,7,8L5.12,6.18A.65.65,0,0,0,4.66,6ZM19.44,6a.66.66,0,0,0-.46.2L17.13,8a.67.67,0,0,0,0,.93.66.66,0,0,0,.93,0L19.9,7.1a.64.64,0,0,0,0-.92A.63.63,0,0,0,19.44,6Z"/><circle class="cls-2" cx="12.1" cy="13.97" r="2"/></g></svg>
