<svg width="183" height="139" viewBox="0 0 183 139" fill="none" xmlns="http://www.w3.org/2000/svg">
<path d="M87 75V68.2875C87 61.075 91.5125 55 97.52 55H101.48C107.48 55 112 61.0825 112 68.2875V75H117.013C119.768 75 122 77.2375 122 79.985V110.015C122 110.67 121.871 111.318 121.62 111.923C121.37 112.528 121.002 113.078 120.539 113.541C120.076 114.004 119.526 114.371 118.921 114.621C118.316 114.872 117.667 115 117.013 115H81.9875C80.6654 114.999 79.3975 114.474 78.4624 113.539C77.5273 112.605 77.0013 111.337 77 110.015V79.985C77 77.2325 79.2325 75 81.9875 75H87ZM92 75H107V68.2875C107 63.575 104.34 60 101.48 60H97.52C94.65 60 92 63.57 92 68.2875V75ZM102 94.335C103.5 93.4725 104.5 91.855 104.5 90C104.5 87.22 102.263 85 99.5 85C96.72 85 94.5 87.2375 94.5 90C94.5 91.8625 95.505 93.475 97 94.335V99.9775C96.9984 100.306 97.0614 100.631 97.1855 100.935C97.3096 101.239 97.4924 101.516 97.7234 101.749C97.9544 101.982 98.2291 102.168 98.5317 102.295C98.8344 102.422 99.1592 102.488 99.4875 102.49C99.8158 102.492 100.141 102.429 100.445 102.304C100.749 102.18 101.026 101.998 101.259 101.767C101.492 101.536 101.678 101.261 101.805 100.958C101.932 100.656 101.998 100.331 102 100.002V94.335Z" fill="#DEDEDE"/>
<path d="M24.8681 138H162.654C164.148 138 165.415 136.9 165.624 135.42L181.516 23.1626C181.771 21.3565 180.37 19.7421 178.545 19.7421H143.546M24.8681 138L34.3995 33.0857C34.5399 31.5404 35.8355 30.3571 37.3872 30.3571H109.483C110.647 30.3571 111.706 29.6838 112.199 28.6297L115.553 21.4695C116.047 20.4154 117.106 19.7421 118.27 19.7421H143.546M24.8681 138L24.0153 134.474M19.8956 39.3135H4.81207C2.86985 39.3135 1.43957 41.131 1.89614 43.0188L24.0153 134.474M19.8956 39.3135L15.8831 11.2079C15.6343 9.46524 16.9324 7.88387 18.6901 7.78831L140.383 1.17196C142.101 1.07854 143.546 2.44669 143.546 4.16754V19.7421M19.8956 39.3135L24.0153 134.474" stroke="#923094" stroke-width="2"/>
</svg>
