<svg width="50" height="20" viewBox="0 0 50 20" fill="none" xmlns="http://www.w3.org/2000/svg">
<path d="M12.5616 7.96343C12.7994 7.81161 13.0457 7.68509 13.309 7.57545H7.29574C7.75437 4.05835 9.81824 3.86437 12.5616 3.88967C13.1221 3.90654 13.6827 3.92341 14.2687 3.92341L14.8293 0.0436387H14.7783C14.0309 0.0352044 13.309 0.00146731 12.5616 0.00146731C8.14507 -0.0322698 3.96637 0.473787 2.76032 5.9392C1.94496 9.61654 0.713436 15.7314 0 19.7799H5.6905L7.04094 11.6323C7.04094 11.5817 7.05792 11.5396 7.07491 11.4974H9.7503C9.94564 10.7467 10.3024 10.0467 10.7865 9.43942C11.2621 8.83216 11.8736 8.33453 12.5616 7.96343Z" fill="#F58220"/>
<path d="M40.9119 6.43686L41.2346 3.39209H36.8606L36.334 6.43686H40.9119Z" fill="#F58220"/>
<path d="M46.5262 11.4215H49.5413L50 7.69352H46.798L47.1037 4.78369H42.8061L42.5004 7.69352H36.1729L34.2959 19.8811L30.6607 14.0361L35.6548 7.70195H30.3974L28.3166 10.2407L26.7368 7.71882H21.9126L25.4968 13.6312L21.7088 18.2364L20.2734 19.9823H21.7088L26.0574 19.9485L27.9004 17.5785L29.3358 19.9485H39.5532L40.4535 11.4468H42.0757L41.702 14.9217C41.3623 18.152 43.562 20.0497 46.5432 19.9148L48.692 19.8473L49.0827 16.3049H47.7492C46.8659 16.3049 46.0421 16.0182 46.195 14.7108L46.5262 11.4215Z" fill="#F58220"/>
<path d="M15.2032 19.9991H16.027C17.4284 19.9063 18.7619 19.3497 19.7896 18.405C20.7663 17.452 21.3863 16.1868 21.5392 14.8373C21.6071 14.365 21.5647 13.8843 21.4118 13.4372C21.2589 12.9902 20.9956 12.5854 20.6559 12.2564C20.6644 12.8637 20.5964 13.471 20.452 14.0614C20.0783 13.5722 19.9424 12.8468 19.3904 12.5348C19.4074 14.4494 18.3202 15.8663 16.2733 15.2928C16.6555 16.3049 17.5898 16.7772 19.0421 16.7182C19.1101 16.7941 18.9742 16.8869 18.9402 16.9206C18.6345 17.2158 18.2777 17.452 17.8871 17.6038C17.4964 17.764 17.0717 17.8399 16.647 17.8315C16.2394 17.8484 15.8317 17.7809 15.4495 17.6375C15.0673 17.4857 14.7276 17.2664 14.4388 16.9796C14.15 16.6929 13.9292 16.3471 13.7848 15.9675C13.6404 15.588 13.581 15.1831 13.5979 14.7783C13.6574 13.6397 14.133 12.5601 14.9399 11.7504C15.7467 10.9407 16.8339 10.4599 17.9805 10.3925C18.5156 10.3672 19.0506 10.4684 19.5432 10.6961C20.0274 10.9238 20.4605 11.2612 20.7833 11.6829C20.537 9.95388 19.1526 9.35505 17.7342 8.78995C20.7068 8.655 22.0403 10.1563 22.9406 12.0878C22.5244 9.37192 21.0041 7.46577 17.9805 7.22961C16.8594 7.17057 15.7383 7.36456 14.6936 7.78627C13.6489 8.20799 12.7146 8.85743 11.9587 9.67555C11.2623 10.3925 10.7272 11.2528 10.379 12.189C10.0308 13.1252 9.87788 14.1204 9.93734 15.1157C10.0053 16.4483 10.5913 17.705 11.5765 18.6243C12.5533 19.5184 13.8527 20.0244 15.2032 19.9991Z" fill="#F58220"/>
</svg>
