<svg width="50" height="20" viewBox="0 0 50 20" fill="none" xmlns="http://www.w3.org/2000/svg">
<path d="M9.30102 10.4009C9.9667 9.34407 10.9899 8.42454 12.0196 7.70834H7.24752C7.70372 4.1863 9.79622 3.87735 12.5328 3.91109C13.0907 3.92752 13.6479 3.94483 14.2389 3.94483L14.7964 0.0525218H14.7456C14.0022 0.0352109 13.2762 0.00146931 12.5328 0.00146931C8.12417 -0.0322723 3.95247 0.472971 2.75316 5.94967C1.9424 9.63982 0.709122 15.774 0 19.8351H5.67504L6.99401 11.7694C6.99401 11.7183 7.01085 11.6684 7.02828 11.6344H8.62912C8.7482 11.3647 8.88589 11.1042 9.03155 10.8481C9.07558 10.768 9.12314 10.6899 9.16953 10.6113C9.21267 10.5406 9.25581 10.4702 9.30102 10.4009Z" fill="#FF5F00"/>
<path d="M16.3826 7.71272C12.9738 7.71272 9.84446 10.4634 9.39299 13.8563C8.94152 17.2493 11.3389 19.9999 14.7474 19.9999C18.156 19.9999 21.2856 17.2496 21.737 13.8563C22.1885 10.4634 19.7911 7.71272 16.3826 7.71272ZM18.3702 13.8563C18.1648 15.3985 16.7427 16.6487 15.1933 16.6487C13.6439 16.6487 12.5545 15.3985 12.7595 13.8563C12.9649 12.3142 14.387 11.064 15.9364 11.064C17.4858 11.064 18.5752 12.3142 18.3702 13.8563Z" fill="#FF5F00"/>
<path d="M41.0449 6.51831L41.3667 3.48275H38.9105H36.9964L36.4717 6.51831H38.9105H41.0449Z" fill="#FF5F00"/>
<path d="M34.4559 20H39.6898L40.5871 11.515H42.0736L41.701 14.986C41.3621 18.2058 43.5642 20.1003 46.5449 19.9663L48.6959 19.8988L49.0859 16.3615H47.7477C46.8667 16.3615 46.037 16.076 46.1895 14.7683L46.5278 11.4986H49.5433L50.0001 7.77557H46.7987L47.1033 4.87468H42.8013L42.4964 7.77557H36.3013L34.4219 19.9328" fill="#FF5F00"/>
<path d="M28.0086 18.1034C27.821 18.1545 27.6426 18.2038 27.4712 18.2516L28.4646 19.9997H33.2881L31.3557 16.5988C30.5438 17.1041 29.4892 17.602 28.0671 18.0855L28.0086 18.1034Z" fill="#FF5F00"/>
<path d="M27.126 9.15456L26.3176 7.73183H21.4941L23.6652 11.5528C24.5909 10.5961 25.7775 9.77481 27.126 9.15456Z" fill="#FF5F00"/>
<path d="M21.6627 19.4776C21.6627 19.4776 21.8373 16.3197 23.2195 14.0382C24.3792 11.6349 27.445 9.62275 30.9235 9.04445C30.9235 9.04445 33.8463 8.37109 34.7516 7.84824C34.7516 7.84824 35.7364 7.21449 35.2917 8.68797C35.2917 8.68797 34.702 10.1145 32.8831 11.0405C32.4544 11.2547 32.1355 11.3025 32.2029 11.7097C32.3246 12.1234 33.0202 11.8089 33.1153 11.7614C33.2808 11.6255 34.8928 11.1866 33.8185 12.7164C32.7383 14.3008 32.0827 15.7382 27.8891 17.1641C25.0934 17.9246 23.9815 18.3524 22.3612 19.8101C21.551 20.3816 21.6624 19.4773 21.6624 19.4773L21.6627 19.4776Z" fill="#FF5F00"/>
</svg>
