<?xml version="1.0" standalone="no"?><!DOCTYPE svg PUBLIC "-//W3C//DTD SVG 1.1//EN" "http://www.w3.org/Graphics/SVG/1.1/DTD/svg11.dtd"><svg t="1668739452062" class="icon" viewBox="0 0 1024 1024" version="1.1" xmlns="http://www.w3.org/2000/svg" p-id="1946" xmlns:xlink="http://www.w3.org/1999/xlink" width="200" height="200"><path d="M603.6 609.09l85.25 182.82c4.79 10.27 0.34 22.47-9.92 27.26l-74.36 34.67c-10.27 4.79-22.47 0.35-27.26-9.92l-87.19-186.98-107.2 107.2c-8.01 8.01-20.99 8.01-29 0.01a20.52 20.52 0 0 1-6.01-14.51V230.19c0-11.33 9.18-20.51 20.51-20.51 5.1 0 10.02 1.9 13.8 5.33l381.75 347.05c8.38 7.62 9 20.59 1.38 28.97a20.517 20.517 0 0 1-13.6 6.65L603.6 609.09z" fill="#161617" p-id="1947"></path></svg>