<svg id="图层_1" data-name="图层 1" xmlns="http://www.w3.org/2000/svg" viewBox="0 0 24 24"><defs><style>.cls-1{fill:#555;}</style></defs><title>隐藏</title><g id="隐藏"><path class="cls-1" d="M20.49,8.35a.59.59,0,0,0-.82.17,9,9,0,0,1-7.66,4,9.05,9.05,0,0,1-7.66-4,.6.6,0,0,0-.82-.2.56.56,0,0,0-.22.24.51.51,0,0,0-.07.24v.07a.56.56,0,0,0,.1.29A10.24,10.24,0,0,0,12,13.75a10.26,10.26,0,0,0,8.67-4.59.6.6,0,0,0-.19-.81Z"/><path class="cls-1" d="M8.92,16.51h-.1a.59.59,0,0,1-.49-.69l.47-2.67a.6.6,0,1,1,1.18.2L9.51,16a.6.6,0,0,1-.59.49m6.11,0a.61.61,0,0,1-.59-.48l-.55-2.67a.6.6,0,0,1,.47-.71.62.62,0,0,1,.71.47l.55,2.67a.61.61,0,0,1-.47.71H15m-10.18-2a.45.45,0,0,1-.2,0,.59.59,0,0,1-.36-.76h0l1-2.67a.6.6,0,1,1,1.13.41l-1,2.68a.6.6,0,0,1-.56.39M19.1,15a.6.6,0,0,1-.56-.38l-1.06-2.68a.6.6,0,0,1,1.12-.44l1.06,2.67a.59.59,0,0,1-.07.56.58.58,0,0,1-.49.27"/></g></svg>
