<svg width="24" height="24" viewBox="0 0 24 24" fill="none" xmlns="http://www.w3.org/2000/svg">
<path d="M11.7906 7.90047L9.26343 12.2148C8.14685 14.121 8.78696 16.5714 10.6932 17.688C12.5994 18.8046 15.0498 18.1645 16.1664 16.2583L20.2098 9.35534C21.3264 7.44914 20.6863 4.99872 18.7801 3.88214C17.9048 3.36941 16.9147 3.22711 15.9917 3.40773" stroke="#1C1C1C" stroke-width="1.3" stroke-linecap="round" stroke-linejoin="round"/>
<path d="M8.00842 19.5921C7.08545 19.7727 6.09535 19.6304 5.22002 19.1177C3.31382 18.0011 2.67372 15.5507 3.79029 13.6445L7.83376 6.74156C8.95033 4.83536 11.4008 4.19525 13.307 5.31183C15.2132 6.42841 15.8533 8.87883 14.7367 10.785L12.2095 15.0994" stroke="#1C1C1C" stroke-width="1.3" stroke-linecap="round" stroke-linejoin="round"/>
</svg>
